<?xml version="1.0" encoding="utf-8"?>
<!-- Generator: Adobe Illustrator 16.0.4, SVG Export Plug-In . SVG Version: 6.00 Build 0)  -->
<!DOCTYPE svg PUBLIC "-//W3C//DTD SVG 1.1//EN" "http://www.w3.org/Graphics/SVG/1.1/DTD/svg11.dtd">
<svg version="1.1" id="Layer_1" xmlns="http://www.w3.org/2000/svg" xmlns:xlink="http://www.w3.org/1999/xlink" x="0px" y="0px"
	 width="80px" height="80px" viewBox="0 0 80 80" enable-background="new 0 0 80 80" xml:space="preserve">
<g>
	<g>
		<path fill="#FFFFFF" d="M39.74,69.675c-20.371,0-36.843-21.778-36.843-21.778S18.483,26.641,39.74,26.641
			c21.251,0,37.365,21.256,37.365,21.256S60.103,69.675,39.74,69.675z M69.14,47.947c0,0-12.66-16.683-29.341-16.683
			c-16.69,0-28.928,16.683-28.928,16.683S23.8,65.061,39.798,65.061C55.788,65.061,69.14,47.947,69.14,47.947z"/>
		<path fill="#FFFFFF" d="M60.991,48.071c0,11.611-9.409,21.021-21.021,21.021c-11.607,0-21.023-9.409-21.023-21.021
			c0-11.61,9.416-21.016,21.023-21.016C51.582,27.055,60.991,36.461,60.991,48.071z M39.97,32.365
			c-8.677,0-15.71,7.034-15.71,15.707c0,8.681,7.033,15.707,15.71,15.707c8.675,0,15.708-7.026,15.708-15.707
			C55.678,39.398,48.645,32.365,39.97,32.365z"/>
		<path fill="#FFFFFF" d="M31.584,47.984c0,4.643,3.768,8.41,8.418,8.41c4.64,0,8.41-3.768,8.41-8.41c0-4.644-3.77-8.411-8.41-8.411
			c-0.532,0-1.049,0.044-1.556,0.139C38.446,39.712,38.581,47.984,31.584,47.984z"/>
	</g>
	<rect x="38.056" y="8.405" fill="#FFFFFF" width="5.311" height="15.765"/>
	<polygon fill="#FFFFFF" points="14.515,32.912 10.317,36.163 0.667,23.703 4.873,20.453 	"/>
	
		<rect x="20.346" y="11.752" transform="matrix(0.9187 -0.395 0.395 0.9187 -5.8837 10.6815)" fill="#FFFFFF" width="5.315" height="15.762"/>
	<g>
		<polygon fill="#FFFFFF" points="65.889,32.912 70.095,36.163 79.736,23.703 75.532,20.453 		"/>
		<polygon fill="#FFFFFF" points="51.859,25.824 56.735,27.923 62.958,13.441 58.076,11.342 		"/>
	</g>
</g>
</svg>
