<?xml version="1.0" encoding="utf-8"?>
<!-- Generator: Adobe Illustrator 16.0.4, SVG Export Plug-In . SVG Version: 6.00 Build 0)  -->
<!DOCTYPE svg PUBLIC "-//W3C//DTD SVG 1.1//EN" "http://www.w3.org/Graphics/SVG/1.1/DTD/svg11.dtd">
<svg version="1.1" id="Layer_1" xmlns="http://www.w3.org/2000/svg" xmlns:xlink="http://www.w3.org/1999/xlink" x="0px" y="0px"
	 width="80px" height="80px" viewBox="0 0 80 80" enable-background="new 0 0 80 80" xml:space="preserve">
<g>
	<path fill-rule="evenodd" clip-rule="evenodd" fill="#FFFFFF" d="M66.772,66.65H11.9c-4.989,0-9.974-4.989-9.974-9.97V11.776
		c0-4.989,4.985-9.97,9.974-9.97h54.873c4.989,0,9.986,4.981,9.986,9.97v44.904C76.759,61.661,71.762,66.65,66.772,66.65
		L66.772,66.65z M39.332,61.661c1.378,0,2.494-1.107,2.494-2.486c0-1.37-1.116-2.494-2.494-2.494s-2.495,1.124-2.495,2.494
		C36.837,60.554,37.954,61.661,39.332,61.661L39.332,61.661z M71.762,6.787H6.911v44.904h64.851V6.787L71.762,6.787z M51.809,76.629
		H26.868V71.64h24.941V76.629L51.809,76.629z"/>
</g>
</svg>
